# xmcd CD database file generated by OrangeCD 6.4
#
# Track frame offsets:
#	150
#	40892
#	62479
#	119494
#	134485
#	148272
#	184390
#	205664
#	238061
#	254418
#	276705
#
# Disc length: 3897 seconds
#
# Revision: 0
# Processed by: cddbd v1.5.2PL0 Copyright (c) Steve Scherf et al.
# Submitted via: OrangeCD 6.4
#
DISCID=b70f370b
DTITLE=Jimi Hendrix - Rockin' The USA Vol. 2
DYEAR=2008
DGENRE=Blues Rock
TTITLE0=Fire
TTITLE1=Spanish Castle Magic
TTITLE2=Machine Gun
TTITLE3=Lover Man
TTITLE4=Foxy Lady
TTITLE5=Hear My Train A Comin'
TTITLE6=Message To Love
TTITLE7=Red House
TTITLE8=Star Spangled Banner
TTITLE9=Purple Haze
TTITLE10=Voodoo Child (Slight Return)
EXTD=
EXTT0=
EXTT1=
EXTT2=
EXTT3=
EXTT4=
EXTT5=
EXTT6=
EXTT7=
EXTT8=
EXTT9=
EXTT10=
PLAYORDER=
